<svg width="30" height="30" viewBox="0 0 30 30" fill="none" xmlns="http://www.w3.org/2000/svg">
<path d="M15 25.5903C16.3269 26.7779 18.0791 27.5 20 27.5C24.1421 27.5 27.5 24.1422 27.5 20C27.5 16.5413 25.1588 13.6295 21.9748 12.7627M8.02522 12.7627C4.84117 13.6295 2.5 16.5413 2.5 20C2.5 24.1421 5.85786 27.5 10 27.5C14.1421 27.5 17.5 24.1421 17.5 20C17.5 19.0244 17.3137 18.0923 16.9748 17.2373M22.5 10C22.5 14.1421 19.1421 17.5 15 17.5C10.8579 17.5 7.5 14.1421 7.5 10C7.5 5.85786 10.8579 2.5 15 2.5C19.1421 2.5 22.5 5.85786 22.5 10Z" stroke="#FF9280" stroke-width="2" stroke-linecap="round" stroke-linejoin="round"/>
</svg>
