<svg width="50" height="50" viewBox="0 0 50 50" fill="none" xmlns="http://www.w3.org/2000/svg">
<path d="M25.0001 18.4031C21.434 18.4031 18.4028 21.4343 18.4028 25.0003C18.4028 28.5664 21.434 31.5976 25.0001 31.5976C28.5661 31.5976 31.5973 28.5664 31.5973 25.0003C31.5973 21.4343 28.5661 18.4031 25.0001 18.4031Z" fill="black"/>
<path d="M33.4564 5.20833H16.7234C10.2461 5.20833 5.20825 10.2462 5.20825 16.5436V33.2765C5.20825 39.7538 10.2461 44.7917 16.7234 44.7917H33.4564C39.7537 44.7917 44.7916 39.7538 44.7916 33.2765V16.5436C44.7916 10.2462 39.7537 5.20833 33.4564 5.20833ZM24.9999 35.4356C19.2423 35.4356 14.7442 30.7576 14.7442 25.1799C14.7442 19.6023 19.2423 14.7443 24.9999 14.7443C30.7575 14.7443 35.2556 19.4223 35.2556 25C35.2556 30.5776 30.7575 35.4356 24.9999 35.4356ZM35.6154 16.9034C34.356 16.9034 33.2764 15.8239 33.2764 14.5644C33.2764 13.3049 34.356 12.2254 35.6154 12.2254C36.8749 12.2254 37.9545 13.3049 37.9545 14.5644C37.9545 15.8239 36.8749 16.9034 35.6154 16.9034Z" fill="black"/>
</svg>
