<svg width="50" height="50" viewBox="0 0 50 50" fill="none" xmlns="http://www.w3.org/2000/svg">
<path d="M43.75 18.75L43.75 6.25M43.75 6.25H31.25M43.75 6.25L27.0833 22.9167M20.8333 10.4167H16.25C12.7497 10.4167 10.9995 10.4167 9.66256 11.0979C8.48655 11.6971 7.53042 12.6532 6.93121 13.8292C6.25 15.1662 6.25 16.9163 6.25 20.4167V33.75C6.25 37.2503 6.25 39.0005 6.93121 40.3374C7.53042 41.5135 8.48655 42.4696 9.66256 43.0688C10.9995 43.75 12.7497 43.75 16.25 43.75H29.5833C33.0837 43.75 34.8338 43.75 36.1708 43.0688C37.3468 42.4696 38.3029 41.5135 38.9021 40.3374C39.5833 39.0005 39.5833 37.2503 39.5833 33.75V29.1667" stroke="black" stroke-width="2" stroke-linecap="round" stroke-linejoin="round"/>
</svg>
