<svg width="50" height="50" viewBox="0 0 50 50" fill="none" xmlns="http://www.w3.org/2000/svg">
<g clip-path="url(#clip0_247_305)">
<path d="M43.2378 14.5904V21.3951C43.2378 21.3951 37.3568 21.7155 32.701 17.8325V33.421C32.701 34.0242 32.6445 34.6085 32.5314 35.2117C31.9659 37.9826 29.6097 44.9945 20.3358 45.8051C19.8645 45.8428 19.3933 45.8428 18.9221 45.8051C16.2831 45.5789 8.38524 44.1086 6.82074 34.6085C6.63224 33.5152 6.61339 32.4031 6.78304 31.3099C7.25427 28.0678 10.6095 19.152 21.6364 20.2264V26.9933C21.6364 26.9933 16.9052 25.8624 14.6055 29.5192C13.3992 31.4418 13.2672 33.8545 14.2851 35.8714C15.0579 37.4171 16.6224 39.0004 19.676 39.1135C20.9578 39.1135 25.0293 38.6611 25.9341 33.6283V4.16667H32.701C32.701 4.16667 32.701 13.9307 43.2567 14.5904H43.2378Z" fill="black"/>
</g>
<defs>
<clipPath id="clip0_247_305">
<rect width="50" height="50" fill="white"/>
</clipPath>
</defs>
</svg>
