<svg width="50" height="50" viewBox="0 0 50 50" fill="none" xmlns="http://www.w3.org/2000/svg">
<path d="M17.5002 39.5833C31.0419 39.5833 38.5419 28.3333 38.5419 18.5417C38.5419 18.125 38.5419 17.9167 38.5419 17.5C40.0002 16.4583 41.2502 15.2083 42.2919 13.75C41.0419 14.375 39.5836 14.7917 38.1252 15C39.5836 14.1667 40.8336 12.7083 41.4586 10.8333C40.0002 11.6667 38.5419 12.2917 36.8752 12.7083C35.2086 11.25 33.1252 10.4167 31.0419 10.4167C26.8752 10.4167 23.7502 13.75 23.7502 17.7083C23.7502 18.3333 23.7502 18.75 23.9586 19.375C17.7086 19.1667 12.2919 16.25 8.75024 11.6667C8.12524 12.9167 7.70858 14.1667 7.70858 15.4167C7.70858 17.9167 8.95858 20.2083 11.0419 21.4583C9.79191 21.4583 8.75024 21.0417 7.70858 20.625C7.70858 24.1667 10.2086 27.0833 13.5419 27.9167C12.9169 28.125 12.2919 28.3333 11.6669 28.3333C11.2502 28.3333 10.8336 28.3333 10.2086 28.125C11.0419 31.0417 13.9586 33.125 17.0836 33.3333C14.5836 35.2083 11.4586 36.4583 7.91691 36.4583C7.29191 36.4583 6.66691 36.4583 6.25024 36.4583C9.58358 38.3333 13.3336 39.5833 17.5002 39.5833Z" fill="black"/>
</svg>
