<svg width="50" height="50" viewBox="0 0 50 50" fill="none" xmlns="http://www.w3.org/2000/svg">
<path d="M25 4.1665C30.211 9.87141 33.1724 17.2749 33.3333 24.9998C33.1724 32.7248 30.211 40.1283 25 45.8332M25 4.1665C19.789 9.87141 16.8276 17.2749 16.6667 24.9998C16.8276 32.7248 19.789 40.1283 25 45.8332M25 4.1665C13.4941 4.1665 4.16666 13.4939 4.16666 24.9998C4.16666 36.5058 13.4941 45.8332 25 45.8332M25 4.1665C36.5059 4.1665 45.8333 13.4939 45.8333 24.9998C45.8333 36.5058 36.5059 45.8332 25 45.8332M5.20836 18.7498H44.7917M5.20832 31.2498H44.7917" stroke="black" stroke-width="2" stroke-linecap="round" stroke-linejoin="round"/>
</svg>
