<svg width="30" height="30" viewBox="0 0 30 30" fill="none" xmlns="http://www.w3.org/2000/svg">
<path d="M11.2495 17.5C11.2495 17.5 12.8902 19.375 15.6245 19.375C18.3589 19.375 19.9995 17.5 19.9995 17.5M19.062 11.25H19.0745M12.187 11.25H12.1995M15.6245 25C21.4926 25 26.2495 20.243 26.2495 14.375C26.2495 8.50697 21.4926 3.75 15.6245 3.75C9.75651 3.75 4.99953 8.50697 4.99953 14.375C4.99953 15.5625 5.19434 16.7045 5.55374 17.7708C5.68899 18.172 5.75662 18.3727 5.76882 18.5268C5.78086 18.679 5.77176 18.7857 5.7341 18.9337C5.69597 19.0835 5.61178 19.2394 5.4434 19.551L3.39883 23.3354C3.10719 23.8753 2.96137 24.1452 2.994 24.3535C3.02243 24.5349 3.12922 24.6947 3.286 24.7903C3.466 24.9001 3.77115 24.8686 4.38146 24.8055L10.7827 24.1438C10.9766 24.1237 11.0735 24.1137 11.1619 24.1171C11.2487 24.1204 11.3101 24.1286 11.3948 24.1481C11.481 24.168 11.5893 24.2097 11.806 24.2932C12.991 24.7497 14.2786 25 15.6245 25ZM19.687 11.25C19.687 11.5952 19.4072 11.875 19.062 11.875C18.7169 11.875 18.437 11.5952 18.437 11.25C18.437 10.9048 18.7169 10.625 19.062 10.625C19.4072 10.625 19.687 10.9048 19.687 11.25ZM12.812 11.25C12.812 11.5952 12.5322 11.875 12.187 11.875C11.8419 11.875 11.562 11.5952 11.562 11.25C11.562 10.9048 11.8419 10.625 12.187 10.625C12.5322 10.625 12.812 10.9048 12.812 11.25Z" stroke="black" stroke-linecap="round" stroke-linejoin="round"/>
</svg>
