<svg width="50" height="50" viewBox="0 0 50 50" fill="none" xmlns="http://www.w3.org/2000/svg">
<path d="M33.3341 18.7498V12.4998C33.3341 7.89747 29.6032 4.1665 25.0008 4.1665C20.3984 4.1665 16.6675 7.89746 16.6675 12.4998V18.7498M7.48413 21.5664L6.23413 34.8998C5.87872 38.6908 5.70101 40.5863 6.33006 42.0504C6.88266 43.3366 7.85104 44.4 9.08 45.0702C10.479 45.8332 12.3828 45.8332 16.1905 45.8332H33.8111C37.6188 45.8332 39.5226 45.8332 40.9216 45.0702C42.1505 44.4 43.1189 43.3366 43.6715 42.0504C44.3006 40.5863 44.1229 38.6908 43.7675 34.8998L42.5175 21.5664C42.2173 18.3651 42.0673 16.7645 41.3473 15.5543C40.7133 14.4886 39.7765 13.6355 38.6562 13.1037C37.3841 12.4998 35.7764 12.4998 32.5611 12.4998L17.4405 12.4998C14.2251 12.4998 12.6175 12.4998 11.3454 13.1037C10.2251 13.6355 9.28831 14.4886 8.65425 15.5543C7.93431 16.7645 7.78425 18.3651 7.48413 21.5664Z" stroke="black" stroke-width="2" stroke-linecap="round" stroke-linejoin="round"/>
</svg>
