<svg width="50" height="50" viewBox="0 0 50 50" fill="none" xmlns="http://www.w3.org/2000/svg">
<path d="M41.6667 43.75C41.6667 40.8426 41.6667 39.3889 41.3079 38.2059C40.5 35.5426 38.4158 33.4584 35.7524 32.6505C34.5695 32.2917 33.1158 32.2917 30.2084 32.2917H19.7917C16.8843 32.2917 15.4306 32.2917 14.2477 32.6505C11.5843 33.4584 9.50012 35.5426 8.69221 38.2059C8.33337 39.3889 8.33337 40.8426 8.33337 43.75M34.375 15.625C34.375 20.8027 30.1777 25 25 25C19.8224 25 15.625 20.8027 15.625 15.625C15.625 10.4473 19.8224 6.25 25 6.25C30.1777 6.25 34.375 10.4473 34.375 15.625Z" stroke="black" stroke-width="2" stroke-linecap="round" stroke-linejoin="round"/>
</svg>
