<svg width="200" height="200" viewBox="0 0 200 200" fill="none" xmlns="http://www.w3.org/2000/svg">
<path d="M100 0L100.019 99.9016L138.269 7.61202L100.056 99.9169L170.71 29.2894L100.083 99.9444L192.388 61.7314L100.098 99.9806L200 100L100.098 100.019L192.388 138.269L100.083 100.056L170.71 170.71L100.056 100.083L138.269 192.388L100.019 100.098L100 200L99.9806 100.098L61.7314 192.388L99.9444 100.083L29.2894 170.71L99.9169 100.056L7.61202 138.269L99.9016 100.019L0 100L99.9016 99.9806L7.61202 61.7314L99.9169 99.9444L29.2894 29.2894L99.9444 99.9169L61.7314 7.61202L99.9806 99.9016L100 0Z" fill="#F0C3D2" stroke="#7DD7E6" stroke-width="4"/>
</svg>
